# xmcd
#
# Track frame offsets: 
#        150
#        14422
#        24651
#        45108
#        58592
#        71142
#        94578
#        108105
#        124276
#        142778
#        156855
#        175878
#        191944
#        208641
#        224670
#        240697
#        254043
#        266326
#        282319
#        295765
#
# Disc length: 4121 seconds
#
# Revision: 0
# Processed by: cddbd v1.5.2PL0 Copyright (c) Steve Scherf et al.
# Submitted via: ExactAudioCopy v0.99pb4
#
DISCID=2e101714
DTITLE=Various Artist - Radio 2 - De Topcollectie - Vlaamse klassiekers - CD 
DTITLE=4
DYEAR=2014
DGENRE=Chanson
TTITLE0=Louisette - Maria, Maria, Ik Hou Van Jou
TTITLE1=Jan De Wilde - Hé Hé
TTITLE2=Els De Schepper - Als Ik Je Morgen Ergens Tegenkom
TTITLE3=Miel Cools - Boer Bavo
TTITLE4=Noordkaap - Satelliet Suzy
TTITLE5=Pieter Embrechts - Barcelona
TTITLE6=Bart Van Den Bossche - De Heuveltjes Van Erika
TTITLE7=Fixkes - Lievelingsdier
TTITLE8=Sam Gooris - Laat Het Gras Maar Groeien
TTITLE9=Wigbert - Rob
TTITLE10=De Elegasten - Wat Heb Je Vandaag Op School Geleerd
TTITLE11=De Strangers - Bij De Rijkswacht
TTITLE12=Johan Stollz - Concerto Voor Jou Natasha
TTITLE13=Gene Thomas - Je Danst Met Jezelf
TTITLE14=Mira - Grenzen
TTITLE15=Buurman - God, Ik En Marjon
TTITLE16=Sabien Tiels - Trein
TTITLE17=Walter Verdin - Er Is Iets
TTITLE18=Rita Deneve - De Allereerste Keer
TTITLE19=Willy Sommers - Zeven Anjers, Zeven Rozen
EXTD=
EXTT0=
EXTT1=
EXTT2=
EXTT3=
EXTT4=
EXTT5=
EXTT6=
EXTT7=
EXTT8=
EXTT9=
EXTT10=
EXTT11=
EXTT12=
EXTT13=
EXTT14=
EXTT15=
EXTT16=
EXTT17=
EXTT18=
EXTT19=
PLAYORDER=
